<svg xmlns="http://www.w3.org/2000/svg" xmlns:xlink="http://www.w3.org/1999/xlink" width="643.521" height="540.695" viewBox="0 0 643.521 540.695">
  <defs>
    <clipPath id="clip-path">
      <rect id="Rectangle_8" data-name="Rectangle 8" width="643.521" height="540.695" fill="none"/>
    </clipPath>
  </defs>
  <g id="Group_1" data-name="Group 1" clip-path="url(#clip-path)">
    <path id="Path_1" data-name="Path 1" d="M95.608,80.772C69,138.706,53.155,189.445,86.814,217.058s128.386,35.76,119.6,4.572-83.534-28.772-78.211-56.979,84.7-140.192,45.547-157.3-51.54,15.485-78.145,73.419" transform="translate(56.41 2.337)" fill="#e8d8c6"/>
    <path id="Path_2" data-name="Path 2" d="M157.534,18.6C128.1,58.676,115.153,173.929,146.256,201.583s119.369,31.422,142.509-2.169-88.907-3.762-99.5-27.89-8.583-59.956,50.454-44.872,77.206-51.034,26.808-44.513-98.2,15.556-91.571-10.752,68.515,7.906,107.963-4.2S186.967-21.481,157.534,18.6" transform="translate(106.905 5.911)" fill="#855e46"/>
    <path id="Path_3" data-name="Path 3" d="M286.561,2.192c-35.323-10.97-44.423,21.129-52.225,54.487s-47.54,194.4,34.685,179.09S321.884,13.16,286.561,2.192M280.3,184.376c-29.8,15.795-42.7-117.6-12.779-125.73S310.1,168.582,280.3,184.376" transform="translate(181.542 0.001)" fill="#513725"/>
    <path id="Path_4" data-name="Path 4" d="M142.261,195.262c.876,14.477-15.725,8.3-51.1,21.932s-65.978,25.7-43.536,49.3,67.829,4.066,41.908,58.671S-53.085,269.152,28.57,208.844s105.057-40.861,113.692-13.582" transform="translate(0 140.95)" fill="#513725"/>
    <path id="Path_5" data-name="Path 5" d="M153.37,197.3C98.2,166.98,54.379,233.863,57.033,284.1S73,379.511,123.8,374.084,208.538,227.629,153.37,197.3m-23.4,126.841c-21.9,55.014-32.394-15.466-32.8-47.672s14.865-51.556,26.059-49.877,28.645,42.535,6.741,97.549" transform="translate(47.423 158.057)" fill="#855e46"/>
    <path id="Path_6" data-name="Path 6" d="M131.788,255.475c1.72,44.643-15.474,109.09,5.135,114.115s29.89-44.447,34.229-69.941,53.78-7.716,54.031-25.272-38.665-20.334-57.816-27.406,27.039-4.6,47.554-17.184-12.442-35.012-27.622-34.526-58.062-6.022-55.51,60.214" transform="translate(105.557 162.679)" fill="#d2b39b"/>
    <path id="Path_7" data-name="Path 7" d="M182.978,243.23c-.792,47.34-4.777,141.374,15.452,140.01s32.581-25.188,26.482-77.573,41.023-17.049,39.991-43.1S215.662,249.03,210.456,236.9s56.062,1.3,56.625-24.367-82.8-47.21-84.1,30.7" transform="translate(151.75 157.44)" fill="#855e46"/>
    <path id="Path_8" data-name="Path 8" d="M230.579,269.226c6.022,55.628-14.788,119.888,37.763,112.482s67.684-62.68,55.219-72.218-39.171,20.893-52.957-2.62,53.235-57.624,30.257-65.756-33.917,31.173-37.785,10.189,62.031-53.091,42.669-65.144-81.188,27.439-75.166,83.067" transform="translate(191.77 153.291)" fill="#2a190f"/>
    <path id="Path_9" data-name="Path 9" d="M284.519,211.838c12.046-54.636,35.591-51.664,49.1-53s64.935-2.616,44.227,18-75.424,42.284-65.959,53.683,60.313-41.758,69.318-11.971-20.4,25.877-38.216,51.694-18.148,60.845,37.95,37.811,24.445,24.966-4.629,37.6-57.842,36.092-78.513-4.383-25.327-74.8-13.281-129.439" transform="translate(231.598 131.801)" fill="#855e46"/>
    <path id="Path_10" data-name="Path 10" d="M199.107,133.112c22.854,0,12.161,9.463,20.746,24.6s38.04-13.221,38.784,10.244,4.53,22.731-20.544,26.4,10.713,33.987-25.074,40.091-5.723-34.959-22.588-36.425-45.822,18.592-46.319-10.858,40.33-17.983,42.773-24.1-10.632-29.95,12.222-29.95" transform="translate(120.067 110.905)" fill="#2a190f"/>
  </g>
</svg>
