<?xml version="1.0" encoding="UTF-8"?>
<svg id="Layer_1" data-name="Layer 1" xmlns="http://www.w3.org/2000/svg" viewBox="0 0 475 475.47">
  <defs>
    <style>
      .cls-1 {
        fill: #3fa9f5;
        fill-rule: evenodd;
        stroke-width: 0px;
      }

      .cls-2 {
        fill: none;
        stroke: #3fa9f5;
        stroke-miterlimit: 10;
        stroke-width: 14px;
      }
    </style>
  </defs>
  <path class="cls-1" d="M457.33,119.7h-176.54L362.56,6.65l-30.21-6.65-86.34,119.7h-.24L159.43,0l-30.27,6.65,81.77,113.04H17.7c-9.79,0-17.7,7.61-17.7,17.03v321.68c0,9.46,7.91,17.06,17.7,17.06h439.56c9.82,0,17.73-7.61,17.73-17.06V136.73c.06-9.46-7.85-17.03-17.67-17.03h0ZM386.22,406.65c0,6.15-4.53,11.11-10.2,11.11H65.98c-5.61,0-10.17-4.96-10.17-11.11v-220.03c0-6.09,4.53-11.11,10.17-11.11h310.04c5.64,0,10.2,5.02,10.2,11.11v220.03h0ZM445.83,417.76h-29.81v-31.07h29.81v31.07h0Z"/>
  <g>
    <path class="cls-2" d="M131.26,348.97l-6.04,26.64h-47.64l38.01-156.34h67.1l36.06,156.34h-47.13l-6.15-26.64h-34.22ZM139.67,312.3h17.42l-8.61-38.21-8.81,38.21Z"/>
    <path class="cls-2" d="M275.82,375.61h-47.02v-156.34h45.59l19.06,32.58,19.16-32.58h45.9v156.34h-47.02v-78.27l-18.03,30.22-17.62-30.22v78.27Z"/>
  </g>
</svg>